# xmcd CD database file
#
# Track frame offsets:
#	150
#	15393
#	42302
#	61979
#	81427
#	96993
#	115170
#	146387
#	166370
#
# Disc length: 2521 seconds
#
# Revision: 1
# Processed by: cddbd v1.5.2PL0 Copyright (c) Steve Scherf et al.
# Submitted via: CDex 1.70beta2
#
DISCID=7009d709
DTITLE=BLUESFESTIVALEN.dk - Demo CD 07
DYEAR=1900
DGENRE=Blues
TTITLE0=Paul Lamb - Money World
TTITLE1=Mitch Woods - Jump For Joy
TTITLE2=Doug MacLeod - Politician Blues
TTITLE3=Shades of Blue - Yo Taxi
TTITLE4=H.P. Lange - Whiskey Take Me
TTITLE5=Johnny Winter - I Smell Smoke
TTITLE6=Walter Trout - Who's Listenin' In
TTITLE7=Angela Strehli  - Always Love You
TTITLE8=Mike Schermer - My Big Sister's Radio
EXTD=
EXTT0=
EXTT1=
EXTT2=
EXTT3=
EXTT4=
EXTT5=
EXTT6=
EXTT7=
EXTT8=
PLAYORDER=
